<?xml version="1.0" standalone="no"?>
<!DOCTYPE svg PUBLIC "-//W3C//DTD SVG 20010904//EN"
 "http://www.w3.org/TR/2001/REC-SVG-20010904/DTD/svg10.dtd">
<svg version="1.0" xmlns="http://www.w3.org/2000/svg"
 width="206.000000pt" height="107.000000pt" viewBox="0 0 206.000000 107.000000"
 preserveAspectRatio="xMidYMid meet">

<g transform="translate(0.000000,107.000000) scale(0.100000,-0.100000)"
fill="#000000" stroke="none">
<path d="M705 792 c-61 -21 -95 -78 -95 -162 l0 -50 -35 0 c-34 0 -35 -1 -35
-40 0 -39 1 -40 35 -40 l35 0 0 -145 0 -145 45 0 45 0 0 145 0 145 40 0 40 0
0 40 0 40 -40 0 -40 0 0 48 c0 63 21 92 66 92 35 0 35 1 32 38 -3 35 -5 37
-38 39 -19 1 -44 -2 -55 -5z"/>
<path d="M231 728 c-5 -13 -57 -133 -115 -266 -58 -134 -106 -246 -106 -248 0
-2 25 -4 55 -4 32 0 55 4 55 11 0 6 10 33 21 60 l22 50 120 -3 121 -3 21 -55
21 -55 57 -3 57 -3 -34 78 c-18 43 -70 165 -116 271 l-82 192 -44 0 c-37 0
-46 -4 -53 -22z m125 -294 c6 -24 5 -24 -75 -24 -45 0 -81 4 -81 9 0 10 68
190 78 205 5 9 65 -136 78 -190z"/>
<path d="M990 574 c-19 -8 -42 -22 -52 -31 -17 -15 -18 -14 -18 11 0 26 -2 27
-42 24 l-43 -3 -3 -283 -2 -282 50 0 51 0 -3 120 c-2 66 -1 120 1 120 3 0 15
-9 27 -21 46 -43 153 -37 209 12 100 88 79 277 -38 330 -50 22 -90 23 -137 3z
m103 -84 c50 -40 58 -133 15 -180 -45 -48 -107 -49 -151 -2 -70 75 -25 202 73
202 22 0 48 -8 63 -20z"/>
<path d="M1368 580 c-30 -9 -88 -42 -88 -50 1 -3 10 -16 21 -29 20 -24 20 -24
51 -7 60 36 158 14 158 -34 0 -16 -7 -20 -38 -20 -62 0 -155 -29 -184 -57 -35
-34 -39 -97 -8 -136 42 -53 157 -62 206 -16 l24 22 0 -21 c0 -19 5 -22 45 -22
l45 0 0 128 c0 159 -16 202 -82 232 -44 20 -103 24 -150 10z m142 -221 c0 -52
-39 -88 -95 -89 -46 0 -65 13 -65 46 0 37 47 61 123 63 31 1 37 -2 37 -20z"/>
</g>
</svg>
